<?xml version="1.0" encoding="UTF-8" standalone="no"?>
<svg
   xmlns:dc="http://purl.org/dc/elements/1.1/"
   xmlns:cc="http://creativecommons.org/ns#"
   xmlns:rdf="http://www.w3.org/1999/02/22-rdf-syntax-ns#"
   xmlns:svg="http://www.w3.org/2000/svg"
   xmlns="http://www.w3.org/2000/svg"
   viewBox="0 0 445.49332 352.01334"
   height="352.01334"
   width="445.49332"
   xml:space="preserve"
   id="svg2"
   version="1.1"><metadata
     id="metadata8"><rdf:RDF><cc:Work
         rdf:about=""><dc:format>image/svg+xml</dc:format><dc:type
           rdf:resource="http://purl.org/dc/dcmitype/StillImage" /></cc:Work></rdf:RDF></metadata><defs
     id="defs6" /><g
     transform="matrix(1.3333333,0,0,-1.3333333,0,352.01333)"
     id="g10"><g
       transform="scale(0.1)"
       id="g12"><path
         id="path14"
         style="fill:#681869;fill-opacity:1;fill-rule:nonzero;stroke:none"
         d="m 1672.09,538.371 c 24.1,0 135.51,39.758 179.02,62.707 233.25,123.152 436.92,290 569.65,520.612 106.56,185.37 113.24,413.97 130.67,621.66 22.5,268.58 20.39,537.36 16.17,806.92 -0.28,19.41 -385.71,61.83 -425.31,65.46 -156.25,14.61 -365.59,24.38 -470.2,24.38 -104.57,0 -313.91,-9.77 -470.2,-24.38 -39.6,-3.63 -424.995,-46.05 -425.347,-65.46 -4.258,-269.56 -6.328,-538.34 16.172,-806.92 17.5,-207.69 24.14,-436.29 130.664,-621.66 132.691,-230.612 336.441,-397.46 569.691,-520.612 43.43,-22.949 154.92,-62.707 179.02,-62.707" /><path
         id="path16"
         style="fill:#e2a313;fill-opacity:1;fill-rule:nonzero;stroke:none"
         d="m 2246.74,1564.19 0.04,-0.21 c 1.05,-0.16 2.11,-0.33 3.04,-0.51 -0.97,0.25 -1.95,0.55 -3.08,0.72 z m 96.72,-16.62 c 0.9,-0.68 1.79,-1.42 2.42,-2.19 0.08,0.12 0.12,0.24 0.12,0.24 -0.79,0.78 -1.61,1.36 -2.54,1.95 z m -16.14,-50.41 c 1.06,-0.51 2.07,-1.03 2.93,-1.7 0,0 0,0.31 0,0.43 -0.93,0.43 -1.91,0.92 -2.93,1.27 z m -35.66,-120.14 c 0.98,-0.86 1.91,-1.71 2.73,-2.61 0,0.11 0.04,0.29 0.04,0.47 -0.86,0.72 -1.79,1.44 -2.77,2.14 z m 2.62,226.12 c -1.99,0.72 -4.07,1.38 -6.6,1.72 0.07,-0.12 0.11,-0.38 0.15,-0.55 2.46,-0.18 4.57,-0.63 6.45,-1.17 z M 1695.29,957.23 c -7.3,-3.101 -14.96,-5.699 -23.28,-7.3 h 2.74 c 7.22,1.84 14.06,4.371 20.54,7.3 z m 445.12,1206.43 c 0,0 -2.54,-1.64 -6.76,-4.27 3.28,1.93 5.55,3.16 6.64,3.73 0.04,0.17 0.12,0.39 0.12,0.54 z m 86.13,291.96 c 0,0 0.08,0.17 0.12,0.27 0,0 -0.98,-0.29 -2.62,-0.86 1.1,0.27 1.96,0.49 2.5,0.59 z m -32.5,-132.99 c 0,0 -2.46,-1.35 -6.48,-3.42 3.16,1.52 5.31,2.52 6.33,2.91 0.04,0.16 0.11,0.33 0.15,0.51 z m 119.18,-885.94 c 0.94,-0.7 1.88,-1.48 2.58,-2.34 0,0.17 0,0.35 0,0.49 -0.78,0.66 -1.64,1.29 -2.58,1.85 z m -6.68,537.58 c 2.5,2.05 4.96,3.73 7.39,5.16 -2.47,-1.39 -5,-2.95 -7.62,-4.93 0.04,-0.02 0.15,-0.15 0.23,-0.23 z m -162.26,-201.04 c 1.29,0.36 2.5,0.59 3.67,0.86 -1.25,-0.23 -2.46,-0.31 -3.75,-0.66 0,-0.04 0.04,-0.12 0.08,-0.2 z m 250.27,364.24 -1.52,-22.18 c -20.86,-319.87 -120.12,-435.32 -214.49,-506.1 l -3.44,-2.6 c -29.77,-22.22 -63.52,-47.48 -125.28,-68.02 l -1.95,-0.63 c -11.64,-3.73 -47.15,-15.15 -56.56,-31.27 -9.02,-15.54 -11.76,-16.87 -13.44,-15.97 -3.75,2.11 3.63,23.37 6.25,28.36 6.84,13.08 18.67,20.35 40.86,30.68 42.42,19.86 47.97,45.16 47.46,58.44 -0.7,18.86 -13.71,36.83 -31.68,43.67 -13.67,5.19 -27.03,2.4 -35.47,-7.31 3.67,-1.62 13.56,-5.88 15.08,-21.64 2.19,-23.96 -10.35,-34.02 -21.76,-35.37 -13.51,-1.56 -29.06,7.62 -31.64,25.88 -4.88,33.85 12.97,55.63 24.3,63.14 13.83,9.24 22.58,12.23 32.77,15.71 0,0 17.62,6.6 17.82,6.66 28.24,4.9 47.77,-10.53 58.24,-18.79 3.9,-3.07 7.26,-5.68 8.59,-5.25 l 1.45,1.58 c 3.94,8.34 -1.72,41.23 -8.68,58.81 l 0.59,1.66 0.98,0.13 c 25.86,3.56 39.1,-13.81 47.03,-24.18 2.69,-3.55 5.23,-6.83 6.4,-6.4 0.63,0.27 1.14,0.93 1.49,2.03 3.4,10 -5.7,46.07 -13.75,63.12 -0.2,0.43 -0.47,1 -0.7,1.43 l 0.07,0.02 c -0.07,0.23 -0.23,0.53 -0.35,0.74 26.29,7.77 42.5,-6.84 51.25,-14.69 3.21,-2.89 6.02,-5.41 7.15,-4.78 l 1.25,1.95 c 2.5,9.53 -9.26,43.24 -19.1,59.92 0,0 4.92,5.41 5.23,5.63 25.28,9.8 41.49,-0.26 51.21,-6.27 3.68,-2.33 6.61,-4.08 7.97,-3.36 l 1.33,2.15 c 2.15,9.55 -10.19,40.23 -20.19,54.84 0,0 4.88,6.09 5.27,6.33 20.23,6.82 35.9,1.76 45.31,-1.29 3.91,-1.25 6.99,-2.25 8.21,-1.56 0.62,0.35 1.05,1.13 1.21,2.36 1.29,8.95 -10.67,36.64 -19.77,46.62 0,0 4.3,6.02 4.65,6.29 18.75,6.58 33.32,1.8 41.95,-1.11 l 7.46,-1.51 c 0.75,0.43 1.14,1.66 1.14,3.62 0.15,10.95 -11.53,38.04 -18.6,44.66 0,0 -0.15,0.12 -0.27,0.22 h 0.04 c -0.2,0.21 -0.39,0.47 -0.55,0.61 18.24,15.15 35.35,14.21 44.57,13.69 l 6.92,0.39 c 0.39,0.39 0.58,1.03 0.54,2.01 -0.39,7.23 -13.63,26.6 -22.77,33.89 21.83,40.7 37.3,78.73 45.94,113.04 11.01,43.42 12.85,43.11 14.29,42.87 2.54,-0.43 2.19,-9.04 -0.31,-42.87 z m -508.71,-741.83 -0.04,-0.16 c -29.18,-48.63 -65.98,-78.81 -159.18,-78.81 0,0 -23.94,0.04 -55.35,0.12 v 51.07 h 49.77 c 76.13,0 128.16,10.24 150.35,29.55 10.27,8.89 13.32,8.6 14.72,7.6 2.62,-1.83 0.28,-8.14 -0.27,-9.37 z m -214.57,369.08 c 5.39,0.62 11.29,0.98 17.89,0.94 45,0 65.08,-21.21 65.08,-68.71 0,-34.16 -10.28,-68.99 -82.97,-72.29 z m 0,755.94 c 45.74,-16.18 70.78,-53.7 66.84,-101.62 -3.72,-46.08 -33.68,-87.43 -66.84,-92.5 z m 777.85,-534.2 c 0,0 0.98,13.45 1.52,14.18 9.89,3.22 53.44,20.7 61.68,75.97 1.18,8.56 1.53,17.95 0.71,28.4 l -2.39,-2.24 c -8.67,-8.11 -34.96,-32.97 -49.45,-29.73 -3.67,0.78 -6.4,3.32 -8.12,7.79 0.07,55.02 -4.26,98.81 -9.96,155.51 15.66,8.63 48.63,33.03 48.47,85.1 -0.08,6.95 -0.78,14.33 -2.19,22.22 l -2.65,-2.96 c -8.56,-9.87 -31.25,-36.02 -44.69,-34.38 -3.2,0.37 -5.66,2.27 -7.46,5.92 l -0.74,7.42 c -10.86,116.89 -34.89,174.61 -82.81,199.24 0,0 -2.93,1.13 -2.93,1.46 0,-0.9 2.42,-4.55 4.8,-8.06 6.99,-10.35 18.67,-27.64 23.13,-48.09 7.69,-34.84 10.46,-62.85 10.46,-85.74 0,-26.54 -3.67,-46.31 -7.69,-62.07 -6.37,-11.6 -15.39,-18.81 -26.8,-21.47 -26.37,-6.32 -56.48,22.91 -66.44,46.64 -0.32,0.73 -0.82,1.55 -1.49,1.55 -2.11,0 -5.74,-6.39 -7.62,-10.82 -8.59,-31.23 1.96,-70.47 23.13,-85.59 7.77,-5.6 20.2,-10.12 35.23,0.08 7.74,5.23 13.48,7.15 17.47,5.94 2.14,-0.63 3.71,-2.17 4.68,-5.08 -9.96,-27.93 -21.29,-56.02 -33.94,-83.67 -7.19,-6.45 -15.28,-9.96 -23.99,-10.49 -29.72,-1.78 -54.53,34.78 -60.39,60.68 -0.27,1.17 -0.62,1.8 -1.17,1.9 -2.23,0.43 -7.34,-5.59 -10.19,-9.87 -15,-30.86 -11.61,-73.53 7.38,-93.16 7.07,-7.34 19.18,-14.4 37.03,-6.5 9.18,4.1 15.39,5.15 18.98,3.24 1.72,-0.96 2.78,-2.54 3.09,-5.26 -14.53,-27.22 -30.55,-54.41 -47.97,-80.99 -6.56,-4.24 -13.67,-6.31 -21.72,-6.23 -31.56,0.13 -52.34,36.42 -54.65,61.42 -0.11,1.04 -0.39,1.62 -0.86,1.8 -2.22,0.68 -8.55,-5.1 -12.3,-9.4 -19.57,-29.29 -22.38,-69.84 -6.25,-90.37 9.02,-11.5 22.85,-14.61 38.98,-8.73 9.81,3.6 15.98,4.46 18.68,2.54 1.09,-0.72 1.64,-1.87 1.48,-3.86 -16.84,-22.8 -34.88,-45.4 -53.79,-67.23 -12.5,-8.32 -24.96,-11.35 -38.16,-9.3 -33.36,5.16 -53.95,52.87 -53.99,84.79 0,1.4 -0.35,2.32 -1.05,2.65 -2.62,1.08 -10.2,-4.86 -14.3,-8.81 -25.12,-31.73 -32.03,-81.77 -15.19,-109.25 6.36,-10.24 18.55,-21.43 41.17,-16.84 11.91,2.44 18.79,2.11 21.01,-1 1.33,-1.85 0.94,-4.55 -1.17,-8.14 0,0 -54.53,-50.57 -54.65,-50.61 -13.59,-8.63 -34.41,-17.26 -56.33,-9.27 -36.67,13.1 -49.64,71.83 -42.85,108.1 0.32,1.76 0.08,2.89 -0.7,3.4 -2.85,1.9 -12.85,-3.26 -18.36,-6.91 -35.39,-30.76 -53.98,-86.33 -40.66,-121.29 5,-13.07 16.52,-28.58 43.24,-28.22 14.76,0.21 22.73,-1.86 24.3,-6.27 1.36,-3.73 -1.92,-8.68 -10.04,-15.26 -7.39,-4.2 -15.94,-9.7 -22.89,-18.22 -16.18,-19.75 -23.56,-35.8 -25.47,-55.49 l -1.57,-20.04 c -1.05,-15.58 -2.14,-31.68 -5.5,-47.2 -2.93,-14.73 -7.54,-27.88 -13.64,-39.01 -34.06,-61.95 -113.67,-94.39 -197.3,-106.52 v 116.4 c 101.76,3.05 145.59,47.43 145.59,146.88 0,84.67 -30.55,121.39 -102.19,122.85 -14.3,0.31 -29.22,-1.97 -43.4,-6.84 v 64.77 c 50.98,23.13 108.63,49.22 168.83,64.57 138.32,35.16 249.65,111.64 288.44,193.22 5.35,11.76 9.25,23.75 11.64,35.92 -7.43,-4.74 -99.85,-63.32 -168.87,-78.14 l -9.45,-1.57 c -9.34,-1.77 -18.99,-3.63 -23.99,0.51 -2.38,1.96 -3.51,4.96 -3.51,9.18 0,37.29 20.58,66.56 57.96,82.42 l 3.75,1.59 c 83.68,35.5 148.95,63.32 180.43,106.71 8.25,11.57 14.14,24.13 17.27,38.32 -7.03,-3.73 -104.06,-55.01 -166.6,-63.82 l -3.4,-0.53 c -7.5,-1.31 -20.08,-3.5 -26.02,2.85 -3.47,3.73 -4.18,9.84 -2.07,18.28 7.11,28.36 19.22,45.2 41.68,58.09 24.57,14.08 50.98,25.84 76.53,37.22 43.32,19.28 81.95,36.57 101.29,59.54 1.01,1.28 2.18,2.52 3.08,3.82 0.24,0.39 0.43,0.73 0.67,1.08 3.47,5.27 6.01,10.86 7.38,16.87 l -90.94,-28.65 -17.93,-5.53 c -25.98,-8.2 -52.93,-16.7 -61.56,-8.16 -3.24,3.18 -3.71,8.28 -1.49,15.66 4.65,15.67 8.72,24.53 16.06,34.96 34.06,48.42 103.12,99.79 185.9,85.18 13.75,-2.58 20.82,-1.5 21.21,0 0.27,0.9 -2.15,3.61 -12.93,7.54 -62.5,22.73 -120.7,20.64 -173.17,-6.19 -95.78,-48.99 -174.72,-181.21 -234.68,-392.91 -34.22,-121 -108.75,-164.67 -185.51,-199.16 v 269.98 c 27.93,11.15 52.11,26.79 72.81,47.54 58.32,58.28 79.03,131.11 55.39,194.68 -19.18,51.43 -64.65,87.07 -115.9,90.73 -4.25,0.29 -8.28,0.43 -12.3,0.5 v 38.95 c -95.9,-0.04 -294.61,-8.93 -449.53,-23.36 -55.67,-5.23 -406.33,-45.47 -406.642,-62.3 -1.446,-91.45 -2.618,-182.25 -2.618,-272.68 0,-168.42 4.102,-335.53 18.086,-503.16 l 5.196,-65.34 c 14.258,-183.47 28.945,-373.26 119.961,-532.09 115.237,-201.312 298.707,-369.671 545.317,-500.41 15.31,-8.07 86.13,-44.492 145.11,-57.171 0.28,-0.039 0.59,-0.118 0.86,-0.168 2.58,-0.551 5.16,-0.981 7.74,-1.411 5.66,-0.941 11.25,-1.8 16.52,-2.191 v 289.262 c 82.15,-1.211 209.73,-2.211 243.71,9.57 32.66,11.309 53.63,36.348 59.14,70.508 6.33,39.531 -9.65,83.851 -37.93,105.311 -3.94,2.99 -9.33,3.32 -10.86,1.49 -1.13,-1.37 -0.43,-2.84 1.49,-6.29 3,-5.51 8.08,-14.67 8.08,-33.27 0,-17.089 -5.97,-31.358 -17.69,-42.319 -31.84,-29.801 -96.8,-25.781 -97.39,-25.762 l -75,0.84 h -72.81 c 0.86,0.191 1.68,0.551 2.54,0.762 l -2.69,0.039 c 42.3,9.711 72.1,40.332 84.76,63.61 32.38,58.79 5.2,97.62 -3.32,108.87 -1.48,1.64 -2.46,2.56 -2.46,2.56 0.12,0 0.31,0 0.31,0 -0.19,0.45 -0.31,0.7 -0.31,0.7 5.04,0.14 9.88,0.26 14.65,0.53 -4.69,-0.24 -9.18,-0.67 -14.1,-0.61 0,0 0.23,-0.21 0.58,-0.56 19.1,0.04 36.41,2.09 52.31,5.66 -11.6,-2.48 -24.34,-3.77 -37.62,-4.43 155.66,8.9 188.63,149.43 206.6,226.06 l 2.97,12.59 c 5.55,22.84 19.96,62.76 54.3,73.48 21.91,6.88 36.36,15.16 46.91,21.31 l 12.58,6.66 c 0,0 4.3,1.76 4.61,1.8 19.65,-0.61 19.18,-17.19 18.87,-28.13 -0.12,-4.53 -0.24,-8.81 1.25,-9.67 0.78,-0.43 2.3,0 4.53,1.35 16.87,10.41 25.23,41.72 27.5,59.73 0.08,1.29 0.23,2.73 0.27,3.83 l 0.16,-0.1 c 0.04,0.25 0.08,0.6 0.08,0.82 21.36,-7.6 23.32,-20.14 24.37,-26.9 0.23,-1.79 0.55,-3.51 1.05,-3.69 0.67,-0.25 2.5,0.82 5.47,3.19 15.55,12.54 19.03,41.31 19.42,58.14 0,0.18 0.04,0.49 0,0.65 h 0.04 c 0.04,0.27 0.04,0.56 0.04,0.82 26.21,-1.94 28.78,-16.76 30.07,-23.83 0.24,-1.51 0.59,-3.54 1.02,-3.65 0.23,-0.1 1.09,0.03 4.3,3.43 13.59,14.34 13.59,44.96 13.04,58.23 -0.04,0.56 -0.07,1.25 -0.19,1.71 l 0.12,-0.03 c 0,0.29 0,0.62 0,0.82 16.91,-1.47 20.78,-14.22 23.12,-21.84 0.78,-2.7 1.56,-5.27 2.46,-5.43 0.43,-0.08 1.52,0.27 3.99,3.38 15.5,19.94 14.64,49.74 12.26,60.98 -0.31,0.91 -0.58,1.91 -0.94,2.46 0.12,0 0.2,-0.04 0.32,-0.04 -0.12,0.25 -0.16,0.66 -0.24,0.86 17.38,-1.04 21.25,-12.29 23.6,-19.03 0.74,-2.18 1.44,-4.25 2.22,-4.37 0.55,-0.1 1.8,0.51 4.53,4.02 12.39,15.76 11.41,46.31 8.09,62.5 22.85,27.05 37.11,50.14 41.21,66.88 3.09,12.67 5,14.33 6.52,14.2 2.58,-0.3 3.4,-7.39 3.64,-11.68 -3.64,-40.92 -12.11,-93.54 -24.53,-147.58 -0.08,-0.33 -0.16,-0.67 -0.24,-0.98 -0.04,-0.39 -0.16,-0.82 -0.23,-1.15 -1.64,-7.56 -3.36,-15.18 -5.12,-22.85 -0.12,0.08 -0.24,0.17 -0.31,0.25 -0.12,-0.29 -0.16,-0.55 -0.24,-0.88 -7.65,7.25 -27.26,9.59 -31.56,5.16 -2.11,-2.09 0.2,-5.35 2.54,-7.76 8.32,-8.71 12.93,-25.17 13.55,-40.15 0.24,-2.19 0.36,-4.32 0.43,-6.37 -0.15,0.1 -0.23,0.16 -0.39,0.24 -0.04,-0.32 0,-0.61 0,-0.92 -9.29,4.98 -24.65,6.01 -27.77,1.87 -1.6,-2.09 0.62,-5.21 2.85,-7.46 9.84,-10.25 13.16,-31.64 11.52,-47.58 -0.15,-2.65 -0.39,-5.19 -0.74,-7.38 -0.15,0.08 -0.27,0.22 -0.43,0.29 -0.08,-0.25 -0.08,-0.6 -0.15,-0.89 -7.54,7.34 -27.19,9.74 -31.64,5.31 -2.15,-2.13 0.19,-5.49 2.53,-7.89 8.64,-8.99 10.75,-33.13 9.07,-49.26 -0.2,-2.79 -0.43,-5.37 -0.75,-7.52 -0.11,0.08 -0.27,0.21 -0.39,0.29 -0.07,-0.25 -0.11,-0.64 -0.15,-0.91 -8.83,7.96 -23.75,12.36 -27.15,9.39 -1.52,-1.33 -0.78,-4.3 2.07,-8.38 11.09,-16.31 7.5,-46.52 4.14,-57.91 -50,-111.1 -105.66,-167.99 -165.43,-169.16 -48.71,-0.96 -74.8,42.57 -77.85,73.82 -4.3,45.18 38.71,75.24 64.84,85.9 18.79,7.78 30.67,-2.93 34.89,-7.91 15.23,-18.42 13.32,-31.07 9.02,-38.44 -5.74,-9.74 -18.79,-14.6 -27.38,-13 -14.34,2.61 -25.86,-2.85 -30.75,-14.61 -4.64,-11.14 -1.6,-23.71 7.31,-29.94 14.37,-10.04 33.08,-10.73 52.62,-1.98 24.64,11.04 45.74,35.04 48.04,54.77 4.1,17.3 -2.61,51.97 -16.05,66.25 -30.59,41.57 -69.06,53.87 -102.89,32.84 -60.39,-37.37 -94.22,-79.91 -97.81,-123.04 -3.29,-39.41 18.08,-79.68 63.51,-119.57 53.99,-47.42 141.37,-18.28 180.35,23.56 0,0 4.69,3.36 5.47,3.44 10.12,-3.79 57.97,-18.25 100.74,23.67 5.32,5.27 10.47,11.36 15.55,18.57 l -3.95,-0.35 c -12.77,-1.35 -46.67,-4.86 -54.88,6.11 -2.26,3.01 -2.42,6.88 -0.39,11.6 24.73,33.83 47.31,76.88 67.81,128.53 10.39,0.66 57.19,6.64 78.91,58.28 3.24,7.93 5.9,16.91 7.73,27.09 l -3.59,-1.94 c -12.03,-6.83 -43.91,-24.9 -54.14,-16.95 -3.44,2.66 -4.14,7.85 -2.07,15.43 11.99,41.52 22.81,87.6 32.85,137.71 14.61,2.31 58.91,14.18 72.54,71.55 1.56,6.93 2.77,14.49 3.32,22.87 l -3.36,-2.21 c -11.13,-7.5 -40.55,-27.38 -53.63,-21.85 -3.32,1.38 -5.31,4.29 -6.1,8.88 6.65,44.36 12.47,92.44 17.74,143.56 6.84,1.97 64.49,20.89 64.49,94.86 0,2.5 -0.12,5.16 -0.23,7.79 -0.9,-0.78 -1.96,-1.74 -1.96,-1.74 -9.84,-8.92 -35.86,-32.81 -49.45,-29.35 -3.36,0.86 -5.74,3.26 -7.11,7.5 l 5.9,118.71 z m -301.29,-491.55 c 1.64,-0.64 3.17,-1.28 4.61,-1.93 -1.44,0.74 -2.89,1.54 -4.57,2.23 0,0 -0.04,-0.22 -0.04,-0.3 z m 50.63,32.35 c 0.9,-0.04 1.72,-0.2 2.58,-0.35 -0.86,0.15 -1.61,0.39 -2.58,0.47 v -0.12" /><path
         id="path18"
         style="fill:#681869;fill-opacity:1;fill-rule:nonzero;stroke:none"
         d="m 1596.86,1713.43 c -1.33,-5.72 1.09,-11.93 5.19,-13.54 1.68,-0.68 5.98,-1.27 10.24,6.41 0.07,0.1 3.98,9.49 3.98,9.49 9.14,22.91 17.3,43.05 55.82,47.33 v 42.83 c -36.99,-12.25 -69.53,-42.09 -75.23,-92.52 z m -537.93,-252.5 v -0.08 c -1.49,0.06 -3.17,0.08 -4.89,0.08 2.35,0.06 4.03,0 4.89,0 z m -0.82,-0.76 0.97,-0.04 1.45,0.98 -14.3,96.25 c 0.04,5.11 0.08,8.84 -2.42,10.7 -2.58,1.93 -7.66,1.46 -17.42,-1.54 v 0 c -136.136,-44.59 -136.644,-96 -125.472,-190.65 0.82,-6.19 9.414,-17.4 12.539,-17.5 l 0.703,-0.02 0.82,1.31 c 1.641,8.38 6.719,19.88 8.946,23.95 39.844,70.25 107.184,76.95 134.184,76.56 z m 422.65,377.91 c -16.6,-22.07 -25.04,-74.01 -25.04,-154.28 0,-127.11 98.17,-144.61 204.18,-144.61 4.22,0 8.17,0.22 12.19,0.35 v 86.7 c -3.95,-0.15 -7.89,-0.33 -12.19,-0.33 -89.76,0 -123.67,6.8 -123.67,78.81 0,85.33 38.95,119.82 97.42,145.33 l 37.54,16.82 c 0.27,0.17 0.63,0.29 0.9,0.41 v 92.38 c -9.69,-4.34 -19.38,-8.57 -29.06,-12.75 -58.64,-25.43 -119.22,-51.72 -162.27,-108.83 z m 68.05,676.15 c -6.02,-7.83 -10.94,-16.8 -8.48,-19.12 1.33,-1.25 3.91,-0.18 7.89,3.26 33.71,28.91 73.52,36.45 118.36,22.42 1.92,-0.6 3.63,-1.5 5.51,-2.18 v 44.04 c -78.32,1.89 -113.91,-36.19 -123.28,-48.42 z m -409.64,-847.78 c 0,-20.33 17.33,-36.86 38.63,-36.86 21.45,0 38.85,16.53 38.85,36.86 0,20.21 -17.4,36.68 -38.85,36.68 -21.3,0 -38.63,-16.47 -38.63,-36.68 z m 131.08,595.83 c 0,0.06 0,0.08 0,0.08 0,0 0.16,-0.18 0.2,-0.24 -0.04,0.04 -0.16,0.08 -0.2,0.16 z m -31.87,-595.82 c 0,-31.8 -27.19,-57.62 -60.59,-57.62 -33.36,0 -60.5,25.82 -60.5,57.62 0,31.64 27.14,57.36 60.5,57.36 33.4,0 60.59,-25.72 60.59,-57.36 z m 404.92,667.69 c -8.48,8.5 -7.66,47.15 -7.62,47.58 0,49.61 -41.56,67.19 -77.07,67.19 -37.97,0 -77.22,-19.98 -77.22,-53.46 l 0.23,-126.42 c 0,-6.68 -2.26,-12.17 -6.52,-15.81 -3.67,-3.14 -8.95,-4.9 -14.65,-4.9 -11.68,0 -23.79,7.25 -23.79,19.36 v 68.08 c 0,77.39 -86.52,88.95 -138.16,88.95 -73.91,0 -152.46,-33.03 -152.46,-94.24 l 0.03,-33.93 -0.03,-278.61 c 0.5,-16.7 -10.24,-28.81 -19.58,-34.08 -8.08,-4.61 -16.48,-5.08 -22.38,-1.35 -5.12,3.3 -10.94,11.31 -9.29,30.55 0.23,2.5 -0.94,4.45 -2.93,4.88 -2.58,0.63 -6.68,-1.4 -9.73,-9.06 -8.91,-23.15 -8.36,-44.45 1.56,-63.38 12.74,-24.34 38.09,-38.18 51.95,-41.54 l -0.62,-43.26 c -0.16,0 -0.27,0 -0.39,0 -49.1,0.87 -108.48,19.8 -108.48,109.27 v 430.74 c 0,65.81 -27.224,88.05 -50.076,95.1 -42.187,13.09 -97.265,-15.39 -120.39,-49.1 -24.336,-35.41 -17.227,-67.48 -2.422,-85.68 16.679,-20.57 44.648,-27.41 69.57,-17.01 0.547,0.21 5,3.26 4.727,6.23 -0.196,1.89 -2.11,3.08 -5.625,3.61 -16.914,2.64 -27.032,13.98 -27.032,30.45 0,17.95 15.821,33.14 34.493,33.14 18.554,0 33.671,-14.9 33.671,-33.14 v -63.15 l 0.274,-370.35 c -50.078,0.82 -63.672,-39.98 -63.672,-64.12 0,-37.87 26.562,-52.21 27.656,-52.77 1.133,-0.61 3.711,-0.49 5.352,1.11 1.25,1.19 2.304,3.67 0,8.24 -6.289,12.54 -6.563,23.46 -0.703,31.57 7.539,10.58 23.75,14.39 35.859,12.71 7.617,-1.09 12.891,-4.16 14.414,-8.46 18.474,-52.11 66.294,-78.59 146.294,-80.95 1.71,0 4.6,-1.76 7.53,-4.59 l -0.23,-23.71 c -24.49,-10.51 -79.1,-46.35 -76.76,-149.22 1.76,-78.6 17.23,-188.11 32.15,-199.2 1.29,-0.94 2.58,-1.23 3.87,-0.9 66.6,18.48 165.39,19.77 215.47,-10.1 6.95,-4.06 10.66,-9 10.19,-13.59 -0.23,-2.58 -1.87,-4.65 -4.18,-5.49 -2.46,-0.88 -5.08,-0.18 -7.22,1.99 -21.92,21.82 -83.6,24.44 -102,24.75 -69.1,1.11 -210.934,-20.16 -252.887,-108.83 -23.907,-50.79 24.57,-153.17 50.547,-185.69 1.6,-2.13 5.16,-2.05 7.66,-0.94 2.07,0.86 3.12,2.35 2.81,3.95 -10.12,50.82 9.96,100.88 56.56,140.92 56.72,48.79 139.53,71.1 192.7,51.88 7.03,-2.58 11.68,-6.99 12.46,-11.84 0.39,-2.29 -0.28,-4.34 -1.72,-5.47 -1.29,-1.02 -3.09,-1.1 -5.08,-0.24 -69.1,29.81 -139.84,-15.52 -140.55,-15.97 30,-179.49 248.56,-175.06 408.13,-171.82 l 54.57,0.72 c 0.08,-0.35 61.05,-60.58 52.73,-111.32 -3.28,-20.36 -17.34,-36.629 -41.68,-48.399 -24.45,-11.801 -121.75,-5.73 -131.83,2.36 -5.43,4.39 -7.62,17.187 -5.55,32.64 3.2,24.019 17.62,56.749 47.81,69.879 3.28,0.9 4.89,2.27 4.53,4 -0.74,3.77 -10.97,6.51 -17.81,5.71 -55.58,-6.92 -95.62,-34.96 -109.84,-77.011 -3.09,-9.32 -4.46,-13.828 -4.65,-23.699 -1.48,-17.609 -5.66,-18.058 -28.79,-20.558 l -12.54,-1.454 C 1301,941.551 1276,920.59 1270.68,884.68 c -4.14,-28.418 4.61,-57.11 24.11,-78.75 16.21,-18.008 37.1,-27.84 57.42,-27.059 1.13,0 3.08,1.219 3.55,3.109 0.43,1.68 -0.12,4.321 -5.27,7.27 -24.73,14.191 -31.17,37.379 -26.6,53.98 4.96,18.258 22.46,29.43 45.66,29.098 0.35,0 9.84,0.184 10.24,-7.008 l 0.11,-6.89 1.53,-20.121 c 9.37,-54.219 50.74,-101.579 100.62,-115.258 1.8,-0.52 5.63,0.918 6.56,3.578 0.78,2.152 -0.07,5.43 -8.47,8.961 -26.37,19.551 -36.02,58.34 -36.18,88.109 -0.11,19.762 3.95,36.25 10.12,40.903 11.1,8.589 51.96,13.976 72.23,-6.352 20.04,-20 29.06,-38.34 25.43,-51.641 -2.38,-8.828 -10.39,-15.218 -23.24,-18.589 -1.61,-0.36 -2.43,-3.129 -2.04,-5.18 0.2,-1.039 1.25,-4.32 6.18,-3.59 53.4,7.891 71.95,49.781 71.64,83.238 -0.04,0.25 -0.55,2.012 0.51,3.473 1.05,1.391 3.35,2.148 6.67,2.148 l 39.3,-0.468 c 6.6,-0.11 13.87,-0.231 21.33,-0.313 v 451.002 l -149.92,0.28 c -34.73,0 -48.01,-15.22 -48.91,-29.38 -1.17,-18.73 18.52,-41.2 57.27,-46 2.34,-0.31 8.43,-4 8.32,-6.35 -0.04,-0.56 -0.74,-2.42 -9.03,-2.6 -25.7,-0.33 -79.14,-1.15 -98.63,30.43 -11.87,19.28 -12.65,44.15 -1.91,63.25 13.75,24.67 44.8,38.24 87.46,38.24 h 155.35 v 60.16 c -77.85,-11.43 -159.41,-5.12 -210.78,11.54 -96.72,31.51 -177.31,119.81 -144.34,227.7 4.57,14.94 15.08,30.49 32.03,47.46 21.1,21.03 42.19,21.6 49.14,21.78 2.97,-0.41 4.81,0.07 5.59,1.54 1.76,3.36 -4.26,9.86 -4.49,10.14 -33.52,39.88 -173.28,51.79 -201.02,39.98 -0.78,-0.3 -1.64,0.99 -2.07,1.79 -11.33,20.49 -15.47,152.52 34.49,187.27 20.86,14.43 42.7,19.74 58.52,14.16 12.77,-4.47 21.91,-15.67 27.11,-33.34 6.09,-20.61 -0.04,-44.73 -13.71,-53.75 -10.16,-6.72 -23.01,-4.43 -36.25,6.5 -3.67,3.03 -5.27,7.46 -6.68,11.37 l -1.72,4.38 c -1.37,2.83 -3.79,6.09 -6.09,5.93 -0.78,-0.04 -1.84,-0.49 -2.43,-2.26 -1.87,-42.09 14.85,-72.6 45.82,-83.91 53.72,-19.63 112.19,0.94 149.07,52.32 34.1,47.9 48.4,128.5 14.96,156.82 -2.31,1.95 -4.1,2.56 -5.43,1.72 -2.89,-1.68 -1.56,-9.1 -1.29,-10.59 0.31,-44.88 -28.83,-77.12 -57.19,-82.36 -24.26,-4.47 -44.72,10.43 -56.17,40.92 0,0 0.94,6.62 8.4,5.98 24.57,-2.19 42.34,6.73 51.37,25.85 11.21,23.99 1.91,57.39 -21.76,77.7 -0.86,0.29 -5.74,1.66 -7.78,0 -0.5,-0.43 -1.05,-1.17 -0.89,-2.42 3.47,-29.3 -4.26,-48.01 -21.25,-51.31 -15.55,-3.07 -34.22,8.24 -38.44,23.22 -4.45,16.08 8.59,30.92 35.78,40.76 1.41,0.53 1.87,1.43 2.07,2.04 0.55,2.26 -1.84,4.96 -2.11,5.27 -35.74,11.93 -73.75,-0.86 -86.99,-29.01 -8.67,-18.71 -0.59,-51.77 19.8,-61.3 0,0 0.78,-1.21 -0.58,-3.15 -3.95,-5.66 -22.78,-13.01 -40.32,-7.48 -12.61,4 -27.73,15.94 -27.73,50.26 v 206.46 c 0,21.13 23.28,32.52 46.33,34.39 22.81,1.9 48.87,-5.31 52.23,-25.56 4.29,-25.88 0.85,-32.62 -7.39,-36.58 -15.82,-7.43 -29.65,4.7 -29.8,4.86 -0.2,-0.24 -0.2,-0.53 -0.35,-0.76 l -0.2,0.15 c -0.16,-0.35 -0.12,-0.68 -0.27,-1.03 -2.46,-4.98 -2.15,-10.04 0.47,-14.98 5.82,-10.82 20.97,-19.81 38.75,-22.89 17.54,-3.01 30.7,-0.96 39.21,6.13 6.57,5.59 10.04,14.18 10.04,25.06 v 33.53 c 0,15.59 8.56,23.05 16.57,23.44 7.11,0.33 14.8,-4.92 16.01,-17.34 l 0.47,-44.49 -0.47,-73.32 c 0,-52.88 41.17,-76.92 79.42,-76.92 38.43,0 77.34,24.65 77.34,71.72 v 108.71 c 0,20.14 8.16,32.93 21.87,34.26 13.68,1.33 30.98,-10.26 35.08,-31.25 4.65,-23.99 2.74,-27.68 -3.67,-40.02 l -3.63,-7.15 -2.66,-5.41 c -6.17,-12.58 -8.98,-18.34 -6.95,-21.21 1.56,-2.25 5.7,-2.19 13.71,-1.25 26.21,3.18 49.8,9.14 71.25,17.73 v 102.13 c -0.47,-0.08 -0.9,-0.21 -1.37,-0.29 -9.45,-1.33 -19.26,-1.97 -27.42,6.15" /><path
         id="path20"
         style="fill:#f1dfa0;fill-opacity:1;fill-rule:nonzero;stroke:none"
         d="m 3321.97,360.109 c -6.48,80.68 -74.96,137.121 -398.01,62.18 -1.32,36.883 -2.81,69.691 -3.47,85.512 -2.78,62.109 -68.83,96.168 -202.78,91.84 -66.01,-2.153 -101.13,-4.731 -125.93,-8.25 -89.89,69.57 -116.72,180.078 -111.72,279.199 l 130.04,150.12 c 34.65,26.86 -81.49,145.12 -194.14,111.8 L 2195.02,841.512 c 3.44,2.886 6.91,5.367 10.39,7.808 -53.52,-67.961 -49.65,-197.422 27.34,-325.89 -181.95,-30.039 -389.02,-59.219 -536.21,-59.219 -8.4,0 -17.15,0.129 -25.93,0.348 -8.79,-0.219 -17.54,-0.348 -25.98,-0.348 -147.11,0 -354.22,29.18 -536.17,59.219 76.95,128.468 80.9,257.929 27.34,325.89 3.48,-2.441 6.95,-4.922 10.43,-7.808 L 925.293,1132.51 c -112.695,33.32 -228.828,-84.94 -194.141,-111.8 l 130,-150.12 c 5,-99.121 -21.836,-209.629 -111.718,-279.199 -24.766,3.519 -59.961,6.097 -125.938,8.25 -133.906,4.328 -200,-29.731 -202.734,-91.84 -0.703,-15.821 -2.149,-48.629 -3.516,-85.512 C 94.1992,497.23 25.7227,440.789 19.2383,360.109 14.0039,294.09 11.6602,165.051 19.1602,117.449 26.6992,69.8086 97.9102,34.5586 174.355,21.4883 351.152,-8.80078 687.09,30.1211 945.215,258.68 c 162.695,-37.91 360.895,-85.66 699.415,-85.66 8.87,0 17.3,0.171 25.98,0.25 8.71,-0.079 17.1,-0.25 25.93,-0.25 338.6,0 536.8,47.75 699.5,85.66 258.12,-228.5589 594.06,-267.48078 770.85,-237.1917 76.45,13.0703 147.62,48.3203 155.16,95.9607 7.54,47.602 5.16,176.641 -0.08,242.66" /><path
         id="path22"
         style="fill:#681869;fill-opacity:1;fill-rule:nonzero;stroke:none"
         d="m 3314.63,171.75 c -2.93,3.16 -5.82,6.359 -9.3,9.078 -51.17,40.293 -154.49,26.543 -247.3,10.531 -28.28,-4.949 -63.01,-14.379 -99.73,-24.398 -81.91,-22.32 -183.83,-50.039 -220.35,-24.32 -8.44,5.918 -12.85,14.539 -13.79,27.05 -0.66,8.129 1.72,11.489 3.48,13.289 11.13,11.168 48.08,8.45 80.74,6.11 45.43,-3.36 91.72,-6.149 115.16,18.398 10.35,10.84 14.1,39.512 15.74,66.211 1.72,22.461 1.72,63.262 -0.9,138.379 177.85,40.332 292.81,42.852 341.56,7.402 18.6,-13.589 28.32,-32.75 30.55,-60.41 3.75,-47.211 6.01,-128.808 4.14,-187.32 z M 3166,34.2109 C 3021.93,9.57812 2692.56,26.8984 2424.39,251.801 c 96.22,22.187 181.33,39.629 278.44,39.539 -9.65,-21.719 -11.91,-50.629 -12.34,-65.32 -1.02,-38.61 5.94,-85.469 28.47,-101.36 0.28,-0.238 0.63,-0.238 0.94,-0.43 1.06,-0.902 1.99,-1.941 3.09,-2.8 46.52,-32.6683 145.94,-5.621 242.11,20.59 36.17,9.82 70.27,19.14 97.38,23.832 93.71,16.207 186.02,26.789 226.8,-5.301 12.77,-10.031 19.53,-24 21.05,-42.52 C 3303.3,81.9609 3244.39,47.5703 3166,34.2109 Z M 2384.43,269.129 c -109.72,-25.59 -238.08,-55.469 -415.86,-71.508 1.72,2.02 2.5,4.258 1.57,6.777 0,0 -9.18,76.973 -53.25,115.243 13.91,16.07 40.16,50.211 50.79,48.961 6.17,-0.551 1.21,-31.09 6.91,-35.43 3.48,-2.793 21.33,-3.051 21.84,1.859 3.16,32.578 -15.86,118.239 -99.85,109.25 l 1.96,15.078 0.15,4.282 c 131.84,13.668 276.8,36.578 404.18,58.379 -3.79,-1.68 -6.44,-4.098 -6.25,-8.239 0.47,-17.011 18.67,-24.5 32.58,-22 3.94,0.75 3.44,-8.98 0.23,-12.711 -5.43,-5.699 -24.33,-9.261 -22.85,-31.48 4.46,-74.5 55.12,-38.27 58.09,-45.981 5.47,-14.75 -31.02,-6.757 -31.02,-20.289 0.24,-18.992 43.44,1.289 44.69,-3.011 6.45,-21 -50.16,-7.207 -49.65,-27.481 0.51,-20.957 57.07,1.031 57.81,-3.219 4.96,-20.73 -32.22,-6.738 -31.48,-26.937 0.47,-8.551 14.1,-7.543 21.29,-5.492 15.43,4.422 30.82,9.461 43.2,19.941 5.51,-5.461 7.78,-12.793 10.43,-19.742 3.52,-9.469 1.52,-19.789 3.52,-31.27 -0.2,-1.347 0.04,-2.418 0.23,-3.609 -16.09,-3.68 -32.46,-7.449 -49.26,-11.371 z M 1882.91,191.34 v 5.89 c 3.52,28.129 6.68,71.211 15.39,86.469 10.9,18.91 27.23,-15.258 28.75,-19.668 5.59,-16.23 18.95,-57.422 19.65,-68.203 -20.63,-1.719 -41.84,-3.219 -63.79,-4.488 z m -22.54,0.019 c 0,-0.429 0.43,-0.859 0.7,-1.25 -51.01,-2.621 -105.54,-4.129 -164.49,-4.129 -8.83,0 -17.26,0.18 -25.97,0.219 -8.68,-0.039 -17.15,-0.219 -25.98,-0.219 -111.8,0 -208.17,5.34 -293.28,13.711 -2.74,7.43 -7.39,32.637 2.42,33.579 12.69,1.031 29.37,-15.7 36.37,-5.059 15.9,25.039 -16.18,43.199 -36.57,56.738 5.2,5.66 12.89,15.762 14.69,14.692 34.3,-21.063 93.75,-27.743 99.96,19.41 5.71,44.238 33.09,93.238 8.99,138.238 -0.08,1.211 -0.35,2.051 -0.59,2.93 60.55,-5.539 117.66,-8.957 168.01,-8.957 8.4,0 17.26,0.226 25.98,0.41 8.71,-0.184 17.61,-0.41 25.97,-0.41 50.16,0 107.07,3.379 167.38,8.937 l 0.36,-3.789 c 0,-5.558 8.71,-22.301 -14.3,-24.629 -50.63,-4.761 -66.72,-127.16 -39.45,-128.16 18.59,-0.82 9.41,19.879 13.63,29.301 1.95,4.328 41.87,-9.141 56.72,-21.434 -13.36,-24.468 -18.32,-53.008 -20.28,-81.328 -0.54,-10.449 0.47,-35.969 -0.27,-38.801 z m -513.24,165.52 c 9.18,3.5 16.6,-18.32 20.12,-30.66 2.22,-7.399 -6.72,-23.418 -12.97,-21.528 -23.87,6.918 -33.05,42.368 -7.15,52.188 z m -29.3,-153.688 c -149.84,16.821 -262.93,43.047 -361.092,65.938 -52.851,12.281 -101.836,23.672 -150.429,32.301 -0.586,59.031 14.414,122.519 5.117,181.601 -0.196,1.289 -13.164,0.199 -20.86,0.199 3.047,-56.992 -16.601,-118.96 -12.812,-177.07 -81.055,12.461 -162.93,16.149 -261.836,2.231 -35.938,-5.039 -65.664,-9.75 -88.672,-26.801 -0.351,7.269 -0.625,16.41 -0.625,29.691 0,34.61 1.406,92.539 5.664,189.098 l 0.313,6.871 c 3.086,70.629 104.804,82.211 189.57,79.461 116.133,-3.731 135.937,-8.852 171.836,-18.27 19.375,-5 43.516,-11.281 88.047,-19.101 2.5,-1.418 5.156,-2.828 7.344,-3.918 21.093,-7.461 38.203,-49.852 38.71,-77.813 1.485,-57.25 -28.046,-116.308 -3.242,-172.679 0.977,-2.051 9.219,-0.59 14.414,-0.59 -12.617,73.031 41.446,151.922 1.25,221.512 -2.851,5.089 -1.562,18.726 4.102,22.398 117.381,-20.609 260.821,-45.219 398.591,-62.988 -7.97,-8.633 -23.83,-29.551 -27.18,-39.453 -10.75,-31.207 16.13,-61.84 -7.04,-94.079 -10.19,-14.16 11.25,-35.96 8.48,-46.96 -5.7,-23.141 -48.75,-41.75 -30.35,-64.661 14.73,-18.168 22.89,30.661 33.36,25.539 16.52,-8.238 4.69,-43.507 -2.66,-52.457 z M 175.215,34.2109 C 96.8164,47.5703 37.9492,81.9609 30.8398,118.031 c 1.5235,18.52 8.3594,32.489 21.0547,42.52 40.8594,32.09 133.1255,21.508 226.8755,5.301 27.07,-4.692 61.21,-14.012 97.343,-23.832 96.133,-26.211 195.586,-53.2583 242.071,-20.59 1.171,0.859 2.07,1.898 3.125,2.8 0.312,0.192 0.664,0.192 0.937,0.43 22.578,15.891 29.531,62.75 28.438,101.36 -0.391,14.691 -2.657,43.601 -12.305,65.32 97.109,0.09 182.226,-17.352 278.437,-39.539 C 648.691,26.8984 319.238,9.57812 175.215,34.2109 Z m 256.68,216.9881 c 17.187,20.68 42.226,25.231 87.617,31.563 31.25,4.379 60.742,6.988 89.101,8.027 7.461,-7.129 15.274,-31.078 16.211,-65.449 0.156,-6.449 0,-12.539 -0.273,-18.442 -21.133,13.153 -56.406,10.711 -93.594,7.954 -37.383,-2.731 -79.805,-5.821 -94.062,9.957 -5.04,5.632 -6.563,14.402 -5,26.39 z M 30.7617,359.07 c 2.2266,27.66 11.875,46.821 30.5078,60.41 48.7105,35.45 163.7105,32.93 341.6015,-7.402 -2.617,-75.117 -2.656,-115.918 -0.937,-138.379 1.64,-26.699 5.39,-55.371 15.703,-66.211 23.476,-24.547 69.726,-21.758 115.195,-18.398 32.617,2.34 69.57,5.058 80.742,-6.11 1.797,-1.8 4.102,-5.16 3.477,-13.289 -0.977,-12.511 -5.313,-21.132 -13.828,-27.05 -36.485,-25.719 -138.36,2 -220.313,24.32 -36.719,10.019 -71.445,19.449 -99.726,24.398 -92.813,16.012 -196.0942,29.762 -247.3051,-10.531 -3.4766,-2.719 -6.3281,-5.918 -9.2578,-9.078 -1.875,58.512 0.3516,140.109 4.1406,187.32 z M 855.215,723.461 c 11.953,36.449 17.383,74.629 18.476,112.109 l 56.875,-65.621 c 2.657,-3.027 6.563,-4.668 10.625,-4.449 4.063,0.27 7.735,2.379 9.922,5.762 33.75,50.859 71.367,80.558 108.677,85.968 22.3,3.321 44.37,-2.441 65.82,-16.832 10.89,-13.867 19.41,-30.668 24.92,-50.179 5.08,-17.629 7.73,-37.789 7.73,-59.797 0,-55.801 -17.69,-123.524 -57.5,-192.684 -68.36,11.352 -133.397,22.793 -190.389,32.852 l -22.617,4.012 c -44.336,7.769 -68.125,13.937 -87.227,18.898 -8.007,2.09 -15.273,3.969 -22.89,5.691 40.351,38.098 64.023,82.989 77.578,124.27 z M 740.098,1029.19 c -0.547,0.62 -1.172,1.21 -1.875,1.72 -0.782,0.66 -1.211,1.87 -1.211,3.45 0,3.05 1.367,7.52 3.906,12.42 18.867,36.72 97.617,94.69 176.484,73.77 5.118,-6.64 133.988,-176.23 182.928,-240.581 -14.57,3.812 -29.33,5.101 -44.29,2.91 -40.98,-5.981 -80.747,-35.609 -116.255,-84.008 -18.75,21.609 -199.687,230.319 -199.687,230.319 z M 1353.57,444.578 c 5.2,-5.566 11.68,-10.387 15.16,-17.09 8.24,-16.488 -7.27,-23.398 -15.16,-33.258 -7.03,10.11 -16.95,20.5 -14.18,33.258 1.49,6.703 8.91,11.524 14.18,17.09 z m 22.27,26.5 c 30.12,-3.648 59.69,-6.867 88.59,-9.687 -20.15,-20.602 6.18,-66.969 -24.53,-83.942 -5,11.992 -14.96,9.531 -23.4,7.442 -11.91,-2.93 -10.46,-18.379 -6.48,-22.641 11.68,-12.012 46.05,-7.73 36.84,-34.922 -6.49,-18.937 -19.42,-36.719 -36.84,-23.117 -34.81,27.148 -33.59,73.238 -21.41,116.617 1.29,4 0,22.953 -10.43,33.344 -3.71,3.789 -4.61,13.008 -2.34,16.906 z m 499.41,-78.508 c 5.98,-2.289 14.65,-2.289 18.32,2.282 5.98,6.929 -3.2,25.976 7.19,26.796 30.98,2.543 44.38,-14.546 52.74,-25 2.26,-2.789 -44.3,-40.839 -57.93,-63.007 -15.59,11.269 -42.11,16.089 -62.19,22.437 0,0 -3.24,12.742 6.41,23.731 12.18,-12.2 26.6,-27.258 47.57,-27.258 21.84,0.25 50.04,41.578 40.2,48.711 -15.39,10.929 -26.29,-41.332 -54.3,-23.012 -9.92,6.68 -26.01,27.09 -7.65,30.141 6.44,1.23 2.96,-13.032 9.64,-15.821 z m 466.1,37.5 c 4.26,3 15.39,4 17.61,-1.511 1.25,-2.539 3.21,-6.188 1.25,-8.75 -2.5,-3.008 -10.89,-5.68 -14.92,-4.719 -0.93,0.211 -15.11,7.281 -3.94,14.98 z m -14.92,82.981 c -1.37,0.687 -0.82,11 -4.42,12.25 6.33,1.058 12.54,2.187 18.67,3.238 1.02,-5.309 1.45,-10.617 -1.01,-14.039 -2.54,-3.77 -9.26,-3.77 -13.24,-1.449 z m 12.69,-50.949 2.97,1.988 c 3.52,0.941 8.2,5.719 11.87,1.719 3.99,-4.239 3.75,-11.739 0.51,-15.258 -4.18,-4.68 -14.8,-2.223 -17.81,2.539 -1.95,3.23 1.45,6.762 2.46,9.012 z m -156.17,268.32 c 0,22.008 2.66,42.168 7.73,59.797 5.55,19.511 14.03,36.312 24.96,50.179 21.41,14.391 43.52,20.153 65.82,16.832 37.31,-5.41 74.89,-35.109 108.6,-85.968 2.23,-3.383 5.94,-5.492 9.96,-5.762 4.06,-0.219 7.97,1.422 10.62,4.449 l 56.88,65.621 c 1.05,-37.48 6.52,-75.66 18.52,-112.109 13.51,-41.281 37.18,-86.172 77.53,-124.27 -7.57,-1.722 -14.88,-3.601 -22.89,-5.691 -19.14,-4.961 -42.89,-11.129 -87.22,-18.898 l -22.62,-4.012 c -25.7,-4.551 -53.24,-9.371 -81.8,-14.352 -4.29,0.192 -9.84,-0.527 -17.26,-2.929 v -0.079 c -29.49,-5.082 -59.96,-10.289 -91.33,-15.492 -39.84,69.16 -57.5,136.883 -57.5,192.684 z m 240.82,390.128 c 78.91,20.92 157.66,-37.05 176.52,-73.77 2.54,-4.9 3.87,-9.37 3.87,-12.42 0,-1.58 -0.39,-2.79 -1.21,-3.45 -0.66,-0.51 -1.25,-1.1 -1.84,-1.72 0,0 -180.9,-208.71 -199.68,-230.319 -35.47,48.399 -75.32,78.027 -116.25,84.008 -15,2.191 -29.73,0.902 -44.26,-2.91 48.94,64.351 177.81,233.941 182.85,240.581 z m -59.53,-592.769 c -0.39,-0.062 -0.67,1.969 -0.82,4.668 6.05,1.09 12.11,2.129 18.08,3.18 -0.39,-2.598 -0.78,-5.231 -3.16,-6.867 -4.73,-3.231 -11.45,-0.223 -14.1,-0.981 z m 33.71,-118.672 c 1.72,6.192 29.02,-2.539 31.29,16.743 0.47,3.957 5.43,-3.481 13.94,-6.993 8.13,-3.558 32,8.711 46.64,6.481 0.98,-0.328 21.53,-111.192 17.39,-127.68 l -46.41,-7.73 c -1.56,55.699 -27.11,112.129 -40.27,112.359 -12.19,0.262 -25.78,-5.469 -22.58,6.82 z m -18.13,51.93 c -2.73,3.52 -1.71,10.781 -0.27,11.25 1.56,0.512 10.2,5.492 14.14,2.742 2.54,-1.98 5,-6 3.75,-9.222 -2.5,-5.758 -13.2,-10.2 -17.62,-4.77 z m 19.85,-20.23 c 5.74,-0.739 9.96,-1.758 9.96,-7.739 0.23,-7.05 -10.47,-8.242 -12.19,-9.019 -2.5,-0.961 -9.18,-0.723 -10.19,1.969 -3.48,9.46 2.5,16.332 12.42,14.789 z m 504.61,-216 c -14.22,-15.778 -56.6,-12.688 -94.03,-9.957 -37.18,2.757 -72.5,5.199 -93.63,-7.954 -0.23,5.903 -0.39,11.993 -0.19,18.442 0.89,34.371 8.71,58.32 16.17,65.449 28.36,-1.039 57.89,-3.648 89.1,-8.027 45.39,-6.332 70.43,-10.883 87.58,-31.563 1.6,-11.988 0.08,-20.758 -5,-26.39 z m -185.24,361.902 c 84.73,2.75 186.45,-8.832 189.57,-79.461 l 0.32,-6.871 c 4.25,-96.559 5.66,-154.488 5.66,-189.098 0,-13.281 -0.23,-22.422 -0.59,-29.691 -23.04,17.051 -52.77,21.762 -88.71,26.801 -112.11,15.757 -202.3,8.898 -294.29,-7.641 l -1.49,9.102 c 3.28,7.25 -18.16,116.386 -14.92,121.207 8.05,11.761 45.51,-0.739 44.92,22.269 -0.43,20.25 -32.5,10.973 -47.85,12.481 -5.74,0.511 -5.51,1.543 -6.45,6.48 -1.79,8.711 -10.42,50.473 -17.65,57.211 -6.41,6.289 -16.37,0.512 -18.32,-7.461 -3.79,-13.027 17.07,-63.969 8.9,-64.238 -20.89,-0.942 -42.22,-18.961 -43.63,-14.242 -3.79,10.222 -3.98,25.98 -11.48,36.23 -9.96,14.07 -44.69,4.281 -45.2,10.742 -0.74,15.469 9.88,14.047 16.13,17.539 4.26,2.192 8.72,5.2 9.46,10.469 1.13,6.41 1.4,15.262 -2.38,20.512 11.67,2.07 23.2,4.097 34.33,6.039 l 22.54,4.039 c 45.39,7.949 69.73,14.301 89.3,19.312 35.93,9.418 55.7,14.539 171.83,18.27 z m 617.23,-225.57 c -2.81,35.218 -16.29,61.148 -41.06,79.281 -56.09,40.758 -170.23,40.109 -357.81,-2.031 -0.7,19.058 -1.6,40.019 -2.61,63.097 l -0.32,6.922 c -2.22,50.602 -41.6,109.82 -216.25,104.18 -61.29,-2.02 -96.44,-4.418 -121.36,-7.578 -46.41,37.316 -72.31,84.019 -86.22,126.476 -14.21,43.383 -18.94,89.711 -17.18,133.953 l 126.79,146.289 c 6.53,5.76 16.84,19.98 3.09,46.85 -23.05,45 -115.7,114.34 -210.43,86.29 -2.62,-0.78 -5,-2.36 -6.68,-4.55 L 2185.14,849.34 c -2.46,-3.262 -2.97,-7.34 -2,-11.09 -7.18,-12.309 -13.12,-25.879 -17.38,-40.961 -6.25,-21.828 -9.22,-45.039 -9.22,-69.238 0,-61.68 19.92,-129.313 56.33,-194.86 -177.62,-29.019 -374.37,-56.05 -516.29,-56.05 -8.36,0 -17.26,0.23 -25.97,0.41 -8.75,-0.18 -17.58,-0.41 -25.98,-0.41 -141.92,0 -338.67,27.031 -516.29,56.05 36.41,65.547 56.37,133.18 56.37,194.86 0,24.199 -3.05,47.41 -9.26,69.238 -4.3,15.082 -10.24,28.652 -17.38,40.961 1.01,3.75 0.5,7.828 -2,11.09 l -221.129,290.98 c -1.64,2.19 -3.984,3.77 -6.64,4.55 -94.727,28.05 -187.344,-41.29 -210.391,-86.29 -13.828,-26.87 -3.476,-41.09 3.086,-46.85 L 847.793,865.441 c 1.719,-44.242 -3.008,-90.57 -17.227,-133.953 -13.867,-42.457 -39.804,-89.16 -86.211,-126.476 -24.882,3.16 -60.078,5.558 -121.367,7.578 -174.687,5.64 -214.023,-53.578 -216.25,-104.18 l -0.312,-6.922 C 405.41,478.41 404.551,457.449 403.809,438.391 216.27,480.531 102.051,481.18 46.0352,440.422 21.1914,422.289 7.75391,396.359 4.94141,361.141 c -5.195316,-65.02 -7.85157,-196.192 0,-245.743 C 14.3164,55.9609 100.176,20.8086 170.84,8.71875 321.777,-17.1211 670.176,1.67188 948.105,244.578 c 0.938,-0.258 1.875,-0.488 2.774,-0.687 160.311,-37.34 359.841,-83.801 693.751,-83.801 8.83,0 17.3,0.172 25.98,0.23 8.71,-0.058 17.14,-0.23 25.97,-0.23 333.91,0 533.44,46.461 693.71,83.801 0.98,0.199 1.88,0.429 2.82,0.687 277.96,-242.90612 626.36,-261.6991 777.22,-235.85925 70.71,12.08985 156.53,47.24215 165.94,106.67925 7.85,49.551 5.19,180.723 0,245.743 z M 868.262,508.801 c 1.25,0.211 2.265,10.738 -0.508,12.969 -37.188,31.992 -82.422,15.5 -124.375,15.25 -10.938,-0.27 -7.188,-13.5 -7.695,-22.008 5.234,0 10.429,-0.512 15.664,0 40.468,5.289 76.953,-14.981 116.914,-6.211 z m -30.742,-33.25 c 5.468,-22.031 -1.016,-132.93 15.82,-164.922 3.984,-6.77 13.437,1.492 14.414,7.461 7.422,53.519 1.055,103.73 -9.414,156.941 -0.235,1.52 -13.164,0.52 -20.82,0.52 z M 746.113,476 c -6.367,-15.23 -24.062,-113.359 -26.054,-134.371 5.234,0 13.437,-1.289 14.179,0.473 19.102,44.976 28.75,92.476 32.774,141.128 -8.008,0 -17.11,2.11 -20.899,-7.23" /></g></g></svg>